<svg width="32" height="32" viewBox="0 0 100 100" fill="none" xmlns="http://www.w3.org/2000/svg">
  <g transform="translate(50, 50)">
    <circle cx="0" cy="0" r="45" fill="#050505" />
    <g stroke="#00f2ff" stroke-width="2.5" stroke-linejoin="round">
      <path d="M0 -12 L11 -6 L11 6 L0 12 L-11 6 L-11 -6 Z" stroke-opacity="0.5" />
      <g transform="rotate(0)">
        <path d="M-4 -12 L4 -12 L6 -28 L0 -34 L-6 -28 Z" />
        <line x1="0" y1="-12" x2="0" y2="-34" />
        <circle cx="0" cy="-38" r="3" fill="#050505" />
      </g>
      <g transform="rotate(60)">
        <path d="M-4 -12 L4 -12 L6 -28 L0 -34 L-6 -28 Z" />
        <line x1="0" y1="-12" x2="0" y2="-34" />
        <circle cx="0" cy="-38" r="3" fill="#050505" />
      </g>
      <g transform="rotate(120)">
        <path d="M-4 -12 L4 -12 L6 -28 L0 -34 L-6 -28 Z" />
        <line x1="0" y1="-12" x2="0" y2="-34" />
        <circle cx="0" cy="-38" r="3" fill="#050505" />
      </g>
      <g transform="rotate(180)">
        <path d="M-4 -12 L4 -12 L6 -28 L0 -34 L-6 -28 Z" />
        <line x1="0" y1="-12" x2="0" y2="-34" />
        <circle cx="0" cy="-38" r="3" fill="#050505" />
      </g>
      <g transform="rotate(240)">
        <path d="M-4 -12 L4 -12 L6 -28 L0 -34 L-6 -28 Z" />
        <line x1="0" y1="-12" x2="0" y2="-34" />
        <circle cx="0" cy="-38" r="3" fill="#050505" />
      </g>
      <g transform="rotate(300)">
        <path d="M-4 -12 L4 -12 L6 -28 L0 -34 L-6 -28 Z" />
        <line x1="0" y1="-12" x2="0" y2="-34" />
        <circle cx="0" cy="-38" r="3" fill="#050505" />
      </g>
    </g>
    <circle cx="0" cy="0" r="3" fill="#00f2ff" />
  </g>
</svg>
